<svg width="24" height="24" viewBox="0 0 24 24" fill="none" xmlns="http://www.w3.org/2000/svg">
<path fill-rule="evenodd" clip-rule="evenodd" d="M17 20V18H15H7V10L11 6.00001L12.5 7.74595L14.0757 6.17025L11 3L5 9.00001V20H17Z" fill="white"/>
<path d="M15.3081 15.0033C15.5571 15.2073 15.7921 15.4003 16.0001 15.5853L15.9991 15.5873C16.194 15.4148 16.4117 15.2367 16.6419 15.0482L16.6601 15.0333L16.7171 14.9863L16.7201 14.9838C17.8856 14.0333 19.3351 12.851 19.3351 11.3863C19.3352 10.9028 19.1408 10.4396 18.7956 10.101C18.4504 9.76238 17.9836 9.5769 17.5001 9.5863C16.928 9.58489 16.3823 9.82751 16.0001 10.2533C15.618 9.8274 15.0723 9.58476 14.5001 9.5863C14.0162 9.57581 13.5484 9.76068 13.2024 10.0992C12.8564 10.4377 12.6613 10.9012 12.6611 11.3853C12.6611 12.844 14.0995 14.0175 15.2556 14.9608L15.2611 14.9653L15.3081 15.0033Z" fill="white"/>
</svg>
