<svg width="24" height="24" viewBox="0 0 24 24" fill="none" xmlns="http://www.w3.org/2000/svg">
<path fill-rule="evenodd" clip-rule="evenodd" d="M12 22C13.1042 22.0006 13.9999 21.1062 14.001 20.002L10.001 20C10.001 21.1042 10.8958 21.9994 12 22Z" fill="white"/>
<path fill-rule="evenodd" clip-rule="evenodd" d="M10 4.34142C7.66953 5.16511 6 7.38767 6 10V17H4V19H20V17H18V10.006C18 9.97052 17.9996 9.93512 17.999 9.89978C17.6748 9.96566 17.3392 10.0002 16.9955 10C16.6541 9.99983 16.3207 9.96544 15.9986 9.90009C15.9995 9.93462 16 9.96926 16 10.004V17H8V10C8 7.79164 9.78964 6.0011 11.998 6C12.0315 5.99998 12.0649 6.00038 12.0983 6.00119C12.0325 5.67771 11.998 5.34288 11.998 5C11.998 3.87442 12.3699 2.83568 12.9976 2H10V4.34142Z" fill="white"/>
<path d="M20 5.003C19.9983 6.65927 18.6548 8.00083 16.9985 8C15.3422 7.99917 14 6.65627 14 5C14 3.34373 15.3422 2.00083 16.9985 2C18.6548 1.99917 19.9983 3.34673 20 5.003Z" fill="white"/>
</svg>
