<svg width="24" height="24" viewBox="0 0 24 24" fill="none" xmlns="http://www.w3.org/2000/svg">
<path fill-rule="evenodd" clip-rule="evenodd" d="M12 22C13.1042 22.0006 13.9999 21.1062 14.001 20.002L10.001 20C10.001 21.1042 10.8958 21.9994 12 22Z" fill="white"/>
<path fill-rule="evenodd" clip-rule="evenodd" d="M6 10C6 7.38767 7.66953 5.16511 10 4.34142V2H14L13.9961 4.34142C16.3265 5.16643 17.9974 7.39432 18 10.006V17H20V19H4V17H6V10ZM11.998 6C14.2064 5.9989 15.9978 7.79564 16 10.004V17H8V10C8 7.79164 9.78964 6.00111 11.998 6Z" fill="white"/>
</svg>
