<svg width="24" height="24" viewBox="0 0 24 24" fill="none" xmlns="http://www.w3.org/2000/svg">
<path fill-rule="evenodd" clip-rule="evenodd" d="M12 22C13.1042 22.0005 13.9999 21.1062 14.001 20.002L10.001 20C10.001 21.1042 10.8958 21.9994 12 22Z" fill="white"/>
<path d="M6 10C6 7.38767 7.66953 5.16511 10 4.34142V2H14L13.9961 4.34142C16.3265 5.16643 17.9974 7.39432 18 10.006V17H20V19H4V17H6V10Z" fill="white"/>
<path fill-rule="evenodd" clip-rule="evenodd" d="M17.5847 4.24124L19 2.82594C20.5877 4.29045 21.5834 6.389 21.5857 8.71608L19.5847 8.71412C19.5829 6.93932 18.8107 5.34175 17.5847 4.24124Z" fill="white"/>
<path fill-rule="evenodd" clip-rule="evenodd" d="M6.50132 4.23927L5.08602 2.82397C3.49835 4.28848 2.50263 6.38703 2.5003 8.71412L4.5013 8.71215C4.50308 6.93735 5.27528 5.33979 6.50132 4.23927Z" fill="white"/>
</svg>
