<svg width="24" height="24" viewBox="0 0 24 24" fill="none" xmlns="http://www.w3.org/2000/svg">
<path fill-rule="evenodd" clip-rule="evenodd" d="M12 22C13.1042 22.0006 13.9999 21.1062 14.001 20.002L12.001 20.001L10.001 20C10.001 21.1042 10.8958 21.9994 12 22Z" fill="white"/>
<path d="M20 5.003C19.9983 6.65927 18.6548 8.00083 16.9985 8C15.3422 7.99917 14 6.65627 14 5C14 3.34373 15.3422 2.00083 16.9985 2C18.6548 1.99917 19.9983 3.34673 20 5.003Z" fill="white"/>
<path d="M6 10C6 7.38767 7.66953 5.16511 10 4.34142V2H12.9976C12.3699 2.83568 11.998 3.87442 11.998 5C11.998 5.34288 12.0325 5.67771 12.0983 6.00119C12.4964 7.95988 14.0395 9.50266 15.9986 9.90009C16.3207 9.96544 16.6541 9.99983 16.9955 10C17.3392 10.0002 17.6748 9.96566 17.999 9.89978C17.9996 9.93512 18 9.97052 18 10.006V17H20V19H4V17H6V10Z" fill="white"/>
</svg>
