<svg width="24" height="24" viewBox="0 0 24 24" fill="none" xmlns="http://www.w3.org/2000/svg">
<path fill-rule="evenodd" clip-rule="evenodd" d="M12 22C13.1042 22.0006 13.9999 21.1062 14.001 20.002L10.001 20C10.001 21.1042 10.8958 21.9994 12 22Z" fill="white"/>
<path d="M20 19H17L19 21L20.5 19.5L20 19Z" fill="white"/>
<path fill-rule="evenodd" clip-rule="evenodd" d="M8.87627 4.87627C9.22856 4.66103 9.60477 4.48111 10 4.34142V2H14L13.9961 4.34142C16.3265 5.16643 17.9974 7.39432 18 10.006V14L8.87627 4.87627ZM7.28675 6.28675C6.8293 6.86659 6.47657 7.53288 6.25707 8.25707C6.08989 8.80866 6 9.39383 6 10V17H4V19H17H20L18 17L7.28675 6.28675Z" fill="white"/>
<path d="M4.5 3.5L3 5L6.25707 8.25707C6.47657 7.53288 6.8293 6.86659 7.28675 6.28675L4.5 3.5Z" fill="white"/>
</svg>
