<svg width="24" height="24" viewBox="0 0 24 24" fill="none" xmlns="http://www.w3.org/2000/svg">
<path d="M11 9.002C10.9989 10.1062 10.1032 11.0006 8.999 11C7.89482 10.9994 7 10.1042 7 9C7 7.89582 7.89482 7.00055 8.999 7C10.1032 6.99945 10.9989 7.89782 11 9.002Z" fill="white"/>
<path d="M17 9.002C16.9989 10.1062 16.1032 11.0006 14.999 11C13.8948 10.9994 13 10.1042 13 9C13 7.89582 13.8948 7.00055 14.999 7C16.1032 6.99945 16.9989 7.89782 17 9.002Z" fill="white"/>
<path d="M11 15.002C10.9989 16.1062 10.1032 17.0006 8.999 17C7.89482 16.9994 7 16.1042 7 15C7 13.8958 7.89482 13.0006 8.999 13C10.1032 12.9994 10.9989 13.8978 11 15.002Z" fill="white"/>
<path d="M17 15.002C16.9989 16.1062 16.1032 17.0006 14.999 17C13.8948 16.9994 13 16.1042 13 15C13 13.8958 13.8948 13.0006 14.999 13C16.1032 12.9994 16.9989 13.8978 17 15.002Z" fill="white"/>
</svg>
