<svg width="24" height="24" viewBox="0 0 24 24" fill="none" xmlns="http://www.w3.org/2000/svg">
<path d="M11 16.003C10.9983 17.6593 9.65477 19.0008 7.9985 19C6.34223 18.9992 5 17.6563 5 16C5 14.3437 6.34223 13.0008 7.9985 13C9.65477 12.9992 10.9983 14.3467 11 16.003Z" fill="white"/>
<path d="M19 16.003C18.9983 17.6593 17.6548 19.0008 15.9985 19C14.3422 18.9992 13 17.6563 13 16C13 14.3437 14.3422 13.0008 15.9985 13C17.6548 12.9992 18.9983 14.3467 19 16.003Z" fill="white"/>
<path d="M11 8.003C10.9983 9.65927 9.65477 11.0008 7.9985 11C6.34223 10.9992 5 9.65627 5 8C5 6.34373 6.34223 5.00083 7.9985 5C9.65477 4.99917 10.9983 6.34673 11 8.003Z" fill="white"/>
<path d="M19 8.003C18.9983 9.65927 17.6548 11.0008 15.9985 11C14.3422 10.9992 13 9.65627 13 8C13 6.34373 14.3422 5.00083 15.9985 5C17.6548 4.99917 18.9983 6.34673 19 8.003Z" fill="white"/>
</svg>
