<svg width="24" height="24" viewBox="0 0 24 24" fill="none" xmlns="http://www.w3.org/2000/svg">
<path fill-rule="evenodd" clip-rule="evenodd" d="M22 12C22 6.47715 17.5228 2 12 2C6.47715 2 2 6.47715 2 12C2 17.5228 6.47715 22 12 22C17.5203 21.9939 21.9939 17.5203 22 12ZM11.996 19.992C16.4127 19.9942 19.9956 16.4167 20 12C19.9956 7.58329 16.4127 3.98979 11.996 3.992C7.57929 3.99421 4 7.57528 4 11.992C4 16.4087 7.57929 19.9898 11.996 19.992Z" fill="black"/>
<path d="M11 16V18H13V16H11Z" fill="black"/>
<path d="M11 15V14L14 11V9L13 8H11L10 9V10H8V8.5L10.5 6H13.5L16 8.5V11.5L13 14.5V15H11Z" fill="black"/>
</svg>
