<svg width="24" height="24" viewBox="0 0 24 24" fill="none" xmlns="http://www.w3.org/2000/svg">
<path d="M12.0014 5.99393C15.314 5.99227 18.0011 8.68739 18.0044 11.9999L16.0044 12.0039C16.0022 9.79557 14.2108 7.99882 12.0024 7.99993L12.0014 5.99393Z" fill="black"/>
<path d="M12.0035 1.98593C17.5263 1.98593 22.0035 6.46309 22.0035 11.9859L20.0035 11.9939C19.999 7.57721 16.4162 3.98372 11.9995 3.98593L12.0035 1.98593Z" fill="black"/>
<path d="M1.75529 8.49854L3.2503 7.00301L5.74541 4.5079L9.74541 8.5079L7.25041 11.0029L12.0024 15.7534L14.7504 13.0054L19.2529 17.5079L16.7545 20.5038L15.2554 22.0034L1.75529 8.49854Z" fill="black"/>
</svg>
