<svg width="24" height="24" viewBox="0 0 24 24" fill="none" xmlns="http://www.w3.org/2000/svg">
<path fill-rule="evenodd" clip-rule="evenodd" d="M11.9965 19C15.8611 19.0019 18.9961 15.8716 19 12.007C18.9961 8.14238 15.8611 4.99807 11.9965 5C8.13188 5.00193 5 8.13537 5 12C5 15.8646 8.13188 18.9981 11.9965 19ZM11.9975 17C14.7579 17.0014 16.9972 14.7654 17 12.005C16.9972 9.24455 14.7579 6.99862 11.9975 7C9.23705 7.00138 7 9.23955 7 12C7 14.7604 9.23705 16.9986 11.9975 17Z" fill="black"/>
<path d="M15 12.003C14.9983 13.6593 13.6548 15.0008 11.9985 15C10.3422 14.9992 9 13.6563 9 12C9 10.3437 10.3422 9.00083 11.9985 9C13.6548 8.99917 14.9983 10.3467 15 12.003Z" fill="black"/>
</svg>
