<svg width="24" height="24" viewBox="0 0 24 24" fill="none" xmlns="http://www.w3.org/2000/svg">
<path d="M20 5V7H22V5H20Z" fill="black"/>
<path d="M13.0024 11V13H22V11H13.0024Z" fill="black"/>
<path d="M20 17V19H22V17H20Z" fill="black"/>
<path fill-rule="evenodd" clip-rule="evenodd" d="M18.9995 6.004C18.9973 8.21236 17.2058 10.0011 14.9975 10C13.1344 9.99907 11.5694 8.72454 11.1255 7H2V5H11.1255C11.5694 3.27546 13.1344 2.00093 14.9975 2C17.2058 1.9989 18.9973 3.79564 18.9995 6.004ZM15.0014 7.998C16.1056 7.99855 17.0013 7.10418 17.0024 6C17.0013 4.89582 16.1056 3.99745 15.0014 3.998C13.8972 3.99855 13.0024 4.89382 13.0024 5.998C13.0024 7.10218 13.8972 7.99745 15.0014 7.998Z" fill="black"/>
<path fill-rule="evenodd" clip-rule="evenodd" d="M12.002 12.004C11.9998 14.2124 10.2084 16.0011 8 16C6.13694 15.9991 4.57189 14.7245 4.12802 13H2V11H4.12802C4.57189 9.27546 6.13694 8.00093 8 8C10.2084 7.9989 11.9998 9.79564 12.002 12.004ZM8.00393 13.998C9.10811 13.9986 10.0038 13.1042 10.0049 12C10.0038 10.8958 9.10811 9.99745 8.00393 9.998C6.89975 9.99855 6.00493 10.8938 6.00493 11.998C6.00493 13.1022 6.89975 13.9974 8.00393 13.998Z" fill="black"/>
<path fill-rule="evenodd" clip-rule="evenodd" d="M18.9995 18.004C18.9973 20.2124 17.2058 22.0011 14.9975 22C13.1344 21.9991 11.5694 20.7245 11.1255 19H2V17H11.1255C11.5694 15.2755 13.1344 14.0009 14.9975 14C17.2058 13.9989 18.9973 15.7956 18.9995 18.004ZM15.0014 19.998C16.1056 19.9986 17.0013 19.1042 17.0024 18C17.0013 16.8958 16.1056 15.9974 15.0014 15.998C13.8972 15.9986 13.0024 16.8938 13.0024 17.998C13.0024 19.1022 13.8972 19.9974 15.0014 19.998Z" fill="black"/>
</svg>
