<svg width="24" height="25" viewBox="0 0 24 25" fill="none" xmlns="http://www.w3.org/2000/svg">
<path fill-rule="evenodd" clip-rule="evenodd" d="M18.9975 20.0498C21.7579 20.0512 23.9972 17.8152 24 15.0548C23.9975 12.5532 22.1582 10.4741 19.7588 10.1073C18.8851 6.6301 15.7402 4.04794 11.996 4.04981C9.004 4.0513 6.39631 5.69516 5.02529 8.12858C2.175 8.59423 0 11.0681 0 14.0498C0 17.3306 2.63325 19.9966 5.90193 20.049L6.09663 20.049L11.996 20.0498H12.0042H18.9975ZM22 15.0528C21.9983 16.7091 20.6548 18.0506 18.9985 18.0498H17.2916L14.9996 18.0498H12.0031H11.997H10.4722L6.70835 18.0498H6.00208H5.998C3.78964 18.0487 2 16.2582 2 14.0498C2 12.5084 2.87189 11.1705 4.14949 10.5027C4.70229 10.2137 5.33105 10.0501 5.998 10.0498C6.112 10.0497 6.22489 10.0545 6.33648 10.0638C6.57563 9.38179 6.9345 8.75605 7.38789 8.21181C8.48786 6.89141 10.1442 6.05073 11.997 6.04981C14.6686 6.04847 16.9334 7.80128 17.7116 10.2174C17.8982 10.797 17.9994 11.4149 18 12.0558C17.9999 12.1112 17.9991 12.1664 17.9976 12.2214C18.3106 12.1104 18.6475 12.05 18.9985 12.0498C19.349 12.0496 19.6855 12.1098 19.9982 12.2206C21.1633 12.6331 21.9987 13.747 22 15.0528Z" fill="black"/>
<path d="M14.4722 9.28751L15.9722 10.7875L10.4722 16.2875L8.72222 14.5375L6.97222 12.7875L8.47222 11.2875L10.4722 13.2875L14.4722 9.28751Z" fill="black"/>
</svg>
