<svg width="24" height="24" viewBox="0 0 24 24" fill="none" xmlns="http://www.w3.org/2000/svg">
<path fill-rule="evenodd" clip-rule="evenodd" d="M5.998 9.99998C3.78964 9.99888 2 8.20834 2 5.99998C2 3.79163 3.78964 2.00109 5.998 1.99999C8.20636 1.99888 9.99779 3.79563 10 6.00398L10.0002 8.00398L14.0003 8.00398L14 6.00135V5.99998C14 3.79163 15.7896 2.00109 17.998 1.99999C20.2064 1.99888 21.9978 3.79563 22 6.00398C21.9978 8.21234 20.2064 10.0011 17.998 9.99998H16.0007L16.0013 14H18C20.2084 13.9989 21.9998 15.7956 22.002 18.004C21.9998 20.2123 20.2084 22.0011 18 22C15.7916 21.9989 14.002 20.2083 14.002 18L14.0017 16.004H10.0008L10.001 18.004C9.99879 20.2123 8.20736 22.0011 5.999 22C3.79064 21.9989 2.001 20.2083 2.001 18C2.001 15.7916 3.79064 14.0011 5.999 14H6.00307H8.00067L8.00033 9.99998L6.00208 9.99998H5.998ZM4 6.00398C4 7.10816 4.89482 8.00343 5.999 8.00398H6.00104H8.00017L8 6.00598C7.99889 4.90181 7.10318 4.00343 5.999 4.00398C4.89482 4.00454 4 4.89981 4 6.00398ZM17.999 8.00398C19.1032 8.00454 19.9989 7.11016 20 6.00598C19.9989 4.90181 19.1032 4.00343 17.999 4.00398C16.8948 4.00454 16 4.89981 16 6.00398L16.0003 8.00398H17.999ZM18.001 20.004C19.1052 20.0045 20.0009 19.1102 20.002 18.006C20.0009 16.9018 19.1052 16.0034 18.001 16.004H16.0017L16.002 18.004C16.002 19.1082 16.8968 20.0034 18.001 20.004ZM6 20.004C7.10418 20.0045 7.99989 19.1102 8.001 18.006L8.00083 16.004H6.00203H6C4.89582 16.0045 4.001 16.8998 4.001 18.004C4.001 19.1082 4.89582 20.0034 6 20.004ZM14.0007 9.99998L10.0003 9.99998L10.0007 14H14.0013L14.0007 9.99998Z" fill="black"/>
</svg>
