<svg width="24" height="24" viewBox="0 0 24 24" fill="none" xmlns="http://www.w3.org/2000/svg">
<path fill-rule="evenodd" clip-rule="evenodd" d="M4 2V22H20V8V7L15 2H14H4ZM6 20V4H12V10H18V15V20H6ZM14 8H18L14 4V8Z" fill="black"/>
<path fill-rule="evenodd" clip-rule="evenodd" d="M6 4V20L11 15L12.5 16.5L16 13L18 15V10H12V4H6ZM8.999 13.998C10.1032 13.9986 10.9989 13.1042 11 12C10.9989 10.8958 10.1032 9.99745 8.999 9.998C7.89482 9.99855 7 10.8938 7 11.998C7 13.1022 7.89482 13.9974 8.999 13.998Z" fill="black"/>
</svg>
