<svg width="24" height="24" viewBox="0 0 24 24" fill="none" xmlns="http://www.w3.org/2000/svg">
<path d="M8 6.002C7.99889 7.10618 7.10318 8.00055 5.999 8C4.89482 7.99945 4 7.10418 4 6C4 4.89582 4.89482 4.00055 5.999 4C7.10318 3.99945 7.99889 4.89782 8 6.002Z" fill="black"/>
<path d="M14 6.002C13.9989 7.10618 13.1032 8.00055 11.999 8C10.8948 7.99945 10 7.10418 10 6C10 4.89582 10.8948 4.00055 11.999 4C13.1032 3.99945 13.9989 4.89782 14 6.002Z" fill="black"/>
<path d="M20 6.002C19.9989 7.10618 19.1032 8.00055 17.999 8C16.8948 7.99945 16 7.10418 16 6C16 4.89582 16.8948 4.00055 17.999 4C19.1032 3.99945 19.9989 4.89782 20 6.002Z" fill="black"/>
<path d="M8 12.002C7.99889 13.1062 7.10318 14.0006 5.999 14C4.89482 13.9994 4 13.1042 4 12C4 10.8958 4.89482 10.0006 5.999 10C7.10318 9.99945 7.99889 10.8978 8 12.002Z" fill="black"/>
<path d="M14 12.002C13.9989 13.1062 13.1032 14.0006 11.999 14C10.8948 13.9994 10 13.1042 10 12C10 10.8958 10.8948 10.0006 11.999 10C13.1032 9.99945 13.9989 10.8978 14 12.002Z" fill="black"/>
<path d="M20 12.002C19.9989 13.1062 19.1032 14.0006 17.999 14C16.8948 13.9994 16 13.1042 16 12C16 10.8958 16.8948 10.0006 17.999 10C19.1032 9.99945 19.9989 10.8978 20 12.002Z" fill="black"/>
<path d="M8 18.002C7.99889 19.1062 7.10318 20.0006 5.999 20C4.89482 19.9994 4 19.1042 4 18C4 16.8958 4.89482 16.0006 5.999 16C7.10318 15.9994 7.99889 16.8978 8 18.002Z" fill="black"/>
<path d="M14 18.002C13.9989 19.1062 13.1032 20.0006 11.999 20C10.8948 19.9994 10 19.1042 10 18C10 16.8958 10.8948 16.0006 11.999 16C13.1032 15.9994 13.9989 16.8978 14 18.002Z" fill="black"/>
<path d="M20 18.002C19.9989 19.1062 19.1032 20.0006 17.999 20C16.8948 19.9994 16 19.1042 16 18C16 16.8958 16.8948 16.0006 17.999 16C19.1032 15.9994 19.9989 16.8978 20 18.002Z" fill="black"/>
</svg>
