<svg width="24" height="24" viewBox="0 0 24 24" fill="none" xmlns="http://www.w3.org/2000/svg">
<path d="M8 9.002C7.99889 10.1062 7.10318 11.0006 5.999 11C4.89482 10.9994 4 10.1042 4 9C4 7.89582 4.89482 7.00055 5.999 7C7.10318 6.99945 7.99889 7.89782 8 9.002Z" fill="black"/>
<path d="M14 9.002C13.9989 10.1062 13.1032 11.0006 11.999 11C10.8948 10.9994 10 10.1042 10 9C10 7.89582 10.8948 7.00055 11.999 7C13.1032 6.99945 13.9989 7.89782 14 9.002Z" fill="black"/>
<path d="M20 9.002C19.9989 10.1062 19.1032 11.0006 17.999 11C16.8948 10.9994 16 10.1042 16 9C16 7.89582 16.8948 7.00055 17.999 7C19.1032 6.99945 19.9989 7.89782 20 9.002Z" fill="black"/>
<path d="M8 15.002C7.99889 16.1062 7.10318 17.0006 5.999 17C4.89482 16.9994 4 16.1042 4 15C4 13.8958 4.89482 13.0006 5.999 13C7.10318 12.9994 7.99889 13.8978 8 15.002Z" fill="black"/>
<path d="M14 15.002C13.9989 16.1062 13.1032 17.0006 11.999 17C10.8948 16.9994 10 16.1042 10 15C10 13.8958 10.8948 13.0006 11.999 13C13.1032 12.9994 13.9989 13.8978 14 15.002Z" fill="black"/>
<path d="M20 15.002C19.9989 16.1062 19.1032 17.0006 17.999 17C16.8948 16.9994 16 16.1042 16 15C16 13.8958 16.8948 13.0006 17.999 13C19.1032 12.9994 19.9989 13.8978 20 15.002Z" fill="black"/>
</svg>
