<svg width="24" height="24" viewBox="0 0 24 24" fill="none" xmlns="http://www.w3.org/2000/svg">
<path fill-rule="evenodd" clip-rule="evenodd" d="M20 22V11L12 2.75408L4 11V22H10H14H20ZM11.3081 18.0033C11.5571 18.2073 11.7921 18.4003 12.0001 18.5853L11.9991 18.5873C12.194 18.4149 12.4117 18.2367 12.6419 18.0482L12.6601 18.0333L12.7171 17.9863L12.7201 17.9839C13.8856 17.0333 15.3351 15.8511 15.3351 14.3863C15.3352 13.9028 15.1408 13.4396 14.7956 13.101C14.4504 12.7624 13.9836 12.5769 13.5001 12.5863C12.928 12.5849 12.3823 12.8275 12.0001 13.2533C11.618 12.8274 11.0723 12.5848 10.5001 12.5863C10.0162 12.5758 9.54843 12.7607 9.20241 13.0992C8.85639 13.4377 8.66129 13.9013 8.66113 14.3853C8.66113 15.844 10.0995 17.0176 11.2556 17.9608L11.2611 17.9653L11.3081 18.0033Z" fill="black"/>
</svg>
