<svg width="24" height="24" viewBox="0 0 24 24" fill="none" xmlns="http://www.w3.org/2000/svg">
<path fill-rule="evenodd" clip-rule="evenodd" d="M11.9965 2C8.13188 2.00193 5 5.13537 5 9C5 10.3196 5.36518 11.554 6.00001 12.6076L6.19527 12.9134L11.9965 22L17.8006 12.9196L18 12.6076C18.6337 11.556 18.9987 10.3241 19 9.007C18.9961 5.14238 15.8611 1.99807 11.9965 2ZM11.9985 12C13.6548 12.0008 14.9983 10.6593 15 9.003C14.9983 7.34673 13.6548 5.99917 11.9985 6C10.3422 6.00083 9 7.34373 9 9C9 10.6563 10.3422 11.9992 11.9985 12Z" fill="black"/>
</svg>
