<svg width="24" height="24" viewBox="0 0 24 24" fill="none" xmlns="http://www.w3.org/2000/svg">
<path d="M14.001 20.002C13.9999 21.1062 13.1042 22.0006 12 22C10.8958 21.9994 10.001 21.1042 10.001 20C10.001 18.8958 10.8958 18.0006 12 18C13.1042 17.9994 13.9999 18.8978 14.001 20.002Z" fill="black"/>
<path d="M14.001 12.002C13.9999 13.1062 13.1042 14.0005 12 14C10.8958 13.9994 10.001 13.1042 10.001 12C10.001 10.8958 10.8958 10.0005 12 9.99999C13.1042 9.99944 13.9999 10.8978 14.001 12.002Z" fill="black"/>
<path d="M14.001 4.002C13.9999 5.10618 13.1042 6.00055 12 6C10.8958 5.99945 10.001 5.10418 10.001 4C10.001 2.89582 10.8958 2.00055 12 2C13.1042 1.99945 13.9999 2.89782 14.001 4.002Z" fill="black"/>
</svg>
