<svg width="24" height="24" viewBox="0 0 24 24" fill="none" xmlns="http://www.w3.org/2000/svg">
<path fill-rule="evenodd" clip-rule="evenodd" d="M3 20V3H21V15H9.52008L4.49887 20H3ZM19 5H5V17L9 13H19V5Z" fill="black"/>
<path d="M9 9C8.99945 9.55209 8.55159 9.99928 7.9995 9.999C7.44741 9.99872 7 9.55109 7 8.999C7 8.44691 7.44741 7.99928 7.9995 7.999C8.55159 7.99872 8.99945 8.44791 9 9Z" fill="black"/>
<path d="M13.0005 9C12.9999 9.55209 12.5521 9.99928 12 9.999C11.4479 9.99872 11.0005 9.55109 11.0005 8.999C11.0005 8.44691 11.4479 7.99928 12 7.999C12.5521 7.99872 12.9999 8.44791 13.0005 9Z" fill="black"/>
<path d="M17.0005 9C16.9999 9.55209 16.5521 9.99928 16 9.999C15.4479 9.99872 15.0005 9.55109 15.0005 8.999C15.0005 8.44691 15.4479 7.99928 16 7.999C16.5521 7.99872 16.9999 8.44791 17.0005 9Z" fill="black"/>
</svg>
