<svg width="24" height="24" viewBox="0 0 24 24" fill="none" xmlns="http://www.w3.org/2000/svg">
<path fill-rule="evenodd" clip-rule="evenodd" d="M14 6C14 3.79164 15.7896 2.00111 17.998 2C20.2064 1.9989 21.9978 3.79564 22 6.004C21.9981 7.86636 20.7238 9.43029 19 9.87398L18.9901 14.127C20.7169 14.5704 21.9942 16.1415 21.9961 18.006C21.9939 20.2144 20.2024 22.0031 17.9941 22.002C15.7857 22.0009 13.9961 20.2104 13.9961 18.002C13.9961 17.7701 14.0158 17.5429 14.0537 17.3218L8.88119 14.7747C8.15308 15.5305 7.13035 16.0006 5.998 16C3.78965 15.9989 2 14.2084 2 12C2 9.79164 3.78965 8.00111 5.998 8C7.13035 7.99943 8.15308 8.47156 8.88119 9.22949L14.0537 6.65682C14.0184 6.44312 14 6.2237 14 6ZM18.0019 7.998C19.1061 7.99855 20.0018 7.10418 20.0029 6C20.0018 4.89582 19.1061 3.99745 18.0019 3.998C16.8978 3.99855 16.0029 4.89382 16.0029 5.998C16.0029 7.10218 16.8978 7.99745 18.0019 7.998ZM6.00193 13.998C7.10611 13.9986 8.00182 13.1042 8.00293 12C8.00182 10.8958 7.10611 9.99745 6.00193 9.998C4.89775 9.99855 4.00293 10.8938 4.00293 11.998C4.00293 13.1022 4.89775 13.9974 6.00193 13.998ZM17.998 20C19.1022 20.0006 19.9979 19.1062 19.999 18.002C19.9979 16.8978 19.1022 15.9994 17.998 16C16.8938 16.0006 15.999 16.8958 15.999 18C15.999 19.1042 16.8938 19.9994 17.998 20ZM17 14.127V9.87398C16.0616 9.63244 15.2564 9.05893 14.7173 8.28613L9.82552 10.8352C9.93858 11.2051 9.99959 11.5976 10 12.004C9.99959 12.4104 9.93858 12.8026 9.82552 13.1721L14.7173 15.7103C15.2572 14.9392 16.0622 14.3674 17 14.127Z" fill="black"/>
</svg>
