<svg width="24" height="24" viewBox="0 0 24 24" fill="none" xmlns="http://www.w3.org/2000/svg">
<path fill-rule="evenodd" clip-rule="evenodd" d="M22 6.004C21.9978 8.21236 20.2064 10.0011 17.998 10C17.2684 9.99964 16.5846 9.80396 15.9958 9.46245L9.46026 15.998C9.8028 16.5882 9.99927 17.2736 10 18.004C9.99779 20.2124 8.20636 22.0011 5.998 22C3.78965 21.9989 2 20.2084 2 18C2 15.7916 3.78965 14.0011 5.998 14C6.72592 13.9996 7.40854 14.1946 7.99671 14.5353L14.534 7.998C14.1943 7.4101 14 6.72773 14 6C14 3.79164 15.7896 2.00111 17.998 2C20.2064 1.9989 21.9978 3.79564 22 6.004ZM18.0019 7.998C19.1061 7.99855 20.0018 7.10418 20.0029 6C20.0018 4.89582 19.1061 3.99745 18.0019 3.998C16.8978 3.99855 16.0029 4.89382 16.0029 5.998C16.0029 7.10218 16.8978 7.99745 18.0019 7.998ZM6.00193 19.998C7.10611 19.9986 8.00182 19.1042 8.00293 18C8.00182 16.8958 7.10611 15.9974 6.00193 15.998C4.89775 15.9986 4.00293 16.8938 4.00293 17.998C4.00293 19.1022 4.89775 19.9974 6.00193 19.998Z" fill="black"/>
</svg>
