<svg width="24" height="24" viewBox="0 0 24 24" fill="none" xmlns="http://www.w3.org/2000/svg">
<path d="M11.999 5.98706C15.3115 5.98541 17.9987 8.68052 18.002 11.9931L16.002 11.9971C15.9998 9.7887 14.2084 7.99196 12 7.99306L11.999 5.98706Z" fill="black"/>
<path d="M12.001 1.97906C17.5239 1.97906 22.001 6.45622 22.001 11.9791L20.001 11.9871C19.9966 7.57035 16.4137 3.97685 11.997 3.97906L12.001 1.97906Z" fill="black"/>
<path fill-rule="evenodd" clip-rule="evenodd" d="M2 8.99065L3.49501 7.49512L5.99011 5.00001L9.99011 9.00001L7.49512 11.495L12.9991 16.9961L15.4942 14.501L19.4942 18.501L16.9992 20.996L15.5001 22.4955L2 8.99065ZM6.99512 9.00001L6.00007 10L4.99512 8.99065L5.9927 7.99307L6.99512 9.00001ZM16.4951 18.5L15.5001 19.5L14.4975 18.4976L15.4951 17.5L16.4951 18.5Z" fill="black"/>
</svg>
