<svg width="24" height="24" viewBox="0 0 24 24" fill="none" xmlns="http://www.w3.org/2000/svg">
<path fill-rule="evenodd" clip-rule="evenodd" d="M12 2C17.5228 2 22 6.47715 22 12C21.9939 17.5203 17.5203 21.9939 12 22C6.47715 22 2 17.5228 2 12C2 6.47715 6.47715 2 12 2ZM4 11.992C4 16.4087 7.57929 19.9898 11.996 19.992C13.6932 19.9928 15.2673 19.4651 16.5625 18.5643L10.9979 12.9997V4.05416C7.05241 4.54722 4 7.91329 4 11.992ZM13 4.05416V11H19.9371C19.4827 7.38251 16.6157 4.50696 13 4.05416ZM14 12.9997H19.9371C19.7408 14.5618 19.0941 15.9836 18.1313 17.1311L14 12.9997Z" fill="black"/>
</svg>
