<svg width="24" height="24" viewBox="0 0 24 24" fill="none" xmlns="http://www.w3.org/2000/svg">
<path d="M16.5746 19.9986L11.8076 15.2326C9.65143 16.655 6.76862 16.215 5.13493 14.2141C3.50125 12.2133 3.6467 9.30073 5.4716 7.4726C7.29942 5.64699 10.2123 5.50091 12.2136 7.13449C14.2149 8.76806 14.6552 11.6512 13.2326 13.8076L17.9976 18.5756L16.5746 19.9986ZM9.0316 8.01259C7.59085 8.01168 6.35009 9.02862 6.06809 10.4415C5.7861 11.8544 6.54142 13.2697 7.87213 13.822C9.20285 14.3742 10.7383 13.9095 11.5396 12.7121C12.3408 11.5147 12.1847 9.91806 11.1666 8.8986C10.6019 8.32994 9.83305 8.0109 9.0316 8.01259Z" fill="black"/>
<path d="M16 6V8H22V6H16Z" fill="black"/>
</svg>
