<svg width="24" height="24" viewBox="0 0 24 24" fill="none" xmlns="http://www.w3.org/2000/svg">
<path d="M19.0005 7V9H22.0005V7H19.0005Z" fill="black"/>
<path d="M13.0029 15V17H22.0005V15H13.0029Z" fill="black"/>
<path fill-rule="evenodd" clip-rule="evenodd" d="M18 8.004C17.9977 10.2124 16.2063 12.0011 13.998 12C12.1349 11.9991 10.5698 10.7245 10.126 9H2.00047V7H10.126C10.5698 5.27546 12.1349 4.00093 13.998 4C16.2063 3.9989 17.9977 5.79564 18 8.004ZM14.0019 9.998C15.1061 9.99855 16.0018 9.10418 16.0029 8C16.0018 6.89582 15.1061 5.99745 14.0019 5.998C12.8977 5.99855 12.0029 6.89382 12.0029 7.998C12.0029 9.10218 12.8977 9.99745 14.0019 9.998Z" fill="black"/>
<path fill-rule="evenodd" clip-rule="evenodd" d="M12.0025 16.004C12.0003 18.2124 10.2088 20.0011 8.00047 20C6.13741 19.9991 4.57236 18.7245 4.12849 17H2.00047V15H4.12849C4.57236 13.2755 6.13741 12.0009 8.00047 12C10.2088 11.9989 12.0003 13.7956 12.0025 16.004ZM8.0044 17.998C9.10858 17.9986 10.0043 17.1042 10.0054 16C10.0043 14.8958 9.10858 13.9974 8.0044 13.998C6.90022 13.9986 6.0054 14.8938 6.0054 15.998C6.0054 17.1022 6.90022 17.9974 8.0044 17.998Z" fill="black"/>
</svg>
