<svg width="24" height="24" viewBox="0 0 24 24" fill="none" xmlns="http://www.w3.org/2000/svg">
<path fill-rule="evenodd" clip-rule="evenodd" d="M12.0577 21C16.4744 21.0022 20.0573 17.4247 20.0617 13.008C20.0573 8.59129 16.4744 4.99779 12.0577 5C7.64101 5.00221 4.06172 8.58329 4.06172 13C4.06172 17.4167 7.64101 20.9978 12.0577 21ZM12.0587 19C15.3713 19.0017 18.0584 16.3185 18.0617 13.006C18.0584 9.69347 15.3713 6.99835 12.0587 7C8.74619 7.00166 6.06172 9.68746 6.06172 13C6.06172 16.3125 8.74619 18.9983 12.0587 19Z" fill="black"/>
<path d="M9.0002 4H15.0002V2H9.0002V4Z" fill="black"/>
<path d="M11.0002 9H13.0002V13H11.0002V9Z" fill="black"/>
<path d="M19.9875 7.56155L17.4875 5L18.9875 3.5L21.4875 6.06155L19.9875 7.56155Z" fill="black"/>
</svg>
