<svg width="24" height="24" viewBox="0 0 24 24" fill="none" xmlns="http://www.w3.org/2000/svg">
<path fill-rule="evenodd" clip-rule="evenodd" d="M7.99702 13C10.2054 13.0011 11.9968 11.2124 11.999 9.004C11.9968 6.79564 10.2054 4.9989 7.99702 5C5.78867 5.00111 3.99902 6.79164 3.99902 9C3.99902 11.2084 5.78867 12.9989 7.99702 13ZM7.999 11C9.10318 11.0006 9.99889 10.1062 10 9.002C9.99889 7.89782 9.10318 6.99945 7.999 7C6.89482 7.00055 6 7.89582 6 9C6 10.1042 6.89482 10.9994 7.999 11Z" fill="black"/>
<path d="M2 20C2 16.6875 4.68446 14.0017 7.997 14C11.3095 13.9983 13.9967 16.6935 14 20.006L12 20.01C11.9978 17.8016 10.2064 16.0049 7.998 16.006C5.78964 16.0071 4 17.7976 4 20.006L2 20Z" fill="black"/>
<path d="M20.5 8.004L22 9.504L16.5 15.004L14.75 13.254L13 11.504L14.5 10.004L16.5 12.004L20.5 8.004Z" fill="black"/>
</svg>
