<svg width="24" height="24" viewBox="0 0 24 24" fill="none" xmlns="http://www.w3.org/2000/svg">
<path fill-rule="evenodd" clip-rule="evenodd" d="M6.99702 13C9.20538 13.0011 10.9968 11.2124 10.999 9.00404C10.9968 6.79568 9.20538 4.99894 6.99702 5.00004C4.78867 5.00114 2.99902 6.79168 2.99902 9.00004C2.99902 11.2084 4.78867 12.9989 6.99702 13ZM6.999 11C8.10318 11.0006 8.99889 10.1062 9 9.00204C8.99889 7.89786 8.10318 6.99949 6.999 7.00004C5.89482 7.00059 5 7.89586 5 9.00004C5 10.1042 5.89482 10.9995 6.999 11Z" fill="black"/>
<path fill-rule="evenodd" clip-rule="evenodd" d="M16.997 12.9901C19.2054 12.9912 20.9968 11.2024 20.999 8.99405C20.9968 6.78569 19.2054 4.98895 16.997 4.99005C14.7887 4.99116 12.999 6.78169 12.999 8.99005C12.999 11.1984 14.7887 12.9889 16.997 12.9901ZM16.999 10.9901C18.1032 10.9906 18.9989 10.0962 19 8.99205C18.9989 7.88787 18.1032 6.9895 16.999 6.99005C15.8948 6.9906 15 7.88587 15 8.99005C15 10.0942 15.8948 10.9895 16.999 10.9901Z" fill="black"/>
<path d="M1 20C1 16.6875 3.68446 14.0017 6.997 14C8.53331 13.9993 9.93509 14.5786 10.997 15.5305C11.4971 15.9788 11.7458 16.2272 12 16.6861C13.0744 15.0643 14.9112 13.9911 16.997 13.9901C18.5333 13.9893 19.9351 14.5686 20.997 15.5205C21.4971 15.9688 21.9218 16.4997 22.2497 17.0916C22.7268 17.9529 22.9989 18.9433 23 19.996L21 20C20.9989 18.8554 20.517 17.8214 19.7456 17.0909C19.0287 16.4121 18.0617 15.9955 16.998 15.9961C14.7896 15.9972 13 17.7877 13 19.996L11 20.01C10.9989 18.8654 10.517 17.8314 9.74563 17.1009C9.02874 16.4221 8.06174 16.0055 6.998 16.006C4.78964 16.0071 3 17.7977 3 20.006L1 20Z" fill="black"/>
</svg>
