<svg width="24" height="24" viewBox="0 0 24 24" fill="none" xmlns="http://www.w3.org/2000/svg">
<path fill-rule="evenodd" clip-rule="evenodd" d="M7.99702 13C10.2054 13.0011 11.9968 11.2124 11.999 9.004C11.9968 6.79564 10.2054 4.9989 7.99702 5C5.78867 5.00111 3.99902 6.79164 3.99902 9C3.99902 11.2084 5.78867 12.9989 7.99702 13ZM7.999 11C9.10318 11.0006 9.99889 10.1062 10 9.002C9.99889 7.89782 9.10318 6.99945 7.999 7C6.89482 7.00055 6 7.89582 6 9C6 10.1042 6.89482 10.9994 7.999 11Z" fill="black"/>
<path d="M2 20C2 16.6875 4.68446 14.0017 7.997 14C11.3095 13.9983 13.9967 16.6935 14 20.006L12 20.01C11.9978 17.8016 10.2064 16.0049 7.998 16.006C5.78964 16.0071 4 17.7976 4 20.006L2 20Z" fill="black"/>
<path d="M16.3081 14.0033C16.5571 14.2073 16.7921 14.4003 17.0001 14.5853L16.9991 14.5873C17.194 14.4148 17.4117 14.2367 17.6419 14.0482L17.6601 14.0333L17.7171 13.9863L17.7201 13.9838C18.8856 13.0333 20.3351 11.851 20.3351 10.3863C20.3352 9.90278 20.1408 9.43956 19.7956 9.10097C19.4504 8.76238 18.9836 8.5769 18.5001 8.5863C17.928 8.58489 17.3823 8.82751 17.0001 9.2533C16.618 8.8274 16.0723 8.58476 15.5001 8.5863C15.0162 8.57581 14.5484 8.76068 14.2024 9.09917C13.8564 9.43766 13.6613 9.90125 13.6611 10.3853C13.6611 11.844 15.0995 13.0175 16.2556 13.9608L16.2611 13.9653L16.3081 14.0033Z" fill="black"/>
</svg>
