<svg width="24" height="24" viewBox="0 0 24 24" fill="none" xmlns="http://www.w3.org/2000/svg">
<path d="M11 6.002C10.9989 7.10618 10.1032 8.00055 8.999 8C7.89482 7.99945 7 7.10418 7 6C7 4.89582 7.89482 4.00055 8.999 4C10.1032 3.99945 10.9989 4.89782 11 6.002Z" fill="black"/>
<path d="M17 6.002C16.9989 7.10618 16.1032 8.00055 14.999 8C13.8948 7.99945 13 7.10418 13 6C13 4.89582 13.8948 4.00055 14.999 4C16.1032 3.99945 16.9989 4.89782 17 6.002Z" fill="black"/>
<path d="M11 12.002C10.9989 13.1062 10.1032 14.0006 8.999 14C7.89482 13.9994 7 13.1042 7 12C7 10.8958 7.89482 10.0006 8.999 10C10.1032 9.99945 10.9989 10.8978 11 12.002Z" fill="black"/>
<path d="M17 12.002C16.9989 13.1062 16.1032 14.0006 14.999 14C13.8948 13.9994 13 13.1042 13 12C13 10.8958 13.8948 10.0006 14.999 10C16.1032 9.99945 16.9989 10.8978 17 12.002Z" fill="black"/>
<path d="M11 18.002C10.9989 19.1062 10.1032 20.0006 8.999 20C7.89482 19.9994 7 19.1042 7 18C7 16.8958 7.89482 16.0006 8.999 16C10.1032 15.9994 10.9989 16.8978 11 18.002Z" fill="black"/>
<path d="M17 18.002C16.9989 19.1062 16.1032 20.0006 14.999 20C13.8948 19.9994 13 19.1042 13 18C13 16.8958 13.8948 16.0006 14.999 16C16.1032 15.9994 16.9989 16.8978 17 18.002Z" fill="black"/>
</svg>
