<svg width="24" height="24" viewBox="0 0 24 24" fill="none" xmlns="http://www.w3.org/2000/svg">
<path fill-rule="evenodd" clip-rule="evenodd" d="M3 20V3H21V15H9.52008L4.49887 20H3ZM19 5H5V17L9 13H19V5Z" fill="white"/>
<path d="M11 9C10.9989 10.1042 10.1032 10.9986 8.999 10.998C7.89482 10.9974 7 10.1022 7 8.998C7 7.89382 7.89482 6.99855 8.999 6.998C10.1032 6.99745 10.9989 7.89582 11 9Z" fill="white"/>
<path d="M17.001 9.002C16.9999 10.1062 16.1042 11.0006 15 11C13.8958 10.9994 13.001 10.1042 13.001 9C13.001 7.89582 13.8958 7.00055 15 7C16.1042 6.99945 16.9999 7.89782 17.001 9.002Z" fill="white"/>
</svg>
