<svg width="24" height="24" viewBox="0 0 24 24" fill="none" xmlns="http://www.w3.org/2000/svg">
<path fill-rule="evenodd" clip-rule="evenodd" d="M7.99702 13C10.2054 13.0011 11.9968 11.2124 11.999 9.00403C11.9968 6.79568 10.2054 4.99893 7.99702 5.00003C5.78867 5.00114 3.99902 6.79168 3.99902 9.00003C3.99902 11.2084 5.78867 12.9989 7.99702 13ZM7.999 11C9.10318 11.0006 9.99889 10.1062 10 9.00203C9.99889 7.89786 9.10318 6.99948 7.999 7.00003C6.89482 7.00059 6 7.89586 6 9.00003C6 10.1042 6.89482 10.9995 7.999 11Z" fill="black"/>
<path d="M2 20C2 16.6875 4.68446 14.0017 7.997 14C11.3095 13.9984 13.9967 16.6935 14 20.006L12 20.01C11.9978 17.8017 10.2064 16.0049 7.998 16.006C5.78964 16.0071 4 17.7977 4 20.006L2 20Z" fill="black"/>
<path fill-rule="evenodd" clip-rule="evenodd" d="M17.4143 3L15.999 4.4153C17.225 5.51582 17.9972 7.11338 17.999 8.88818C17.9972 10.663 17.225 12.2571 15.999 13.3544L17.4153 14.7707C19.0024 13.3105 19.9977 11.2167 20 8.89015C19.9977 6.56306 19.002 4.46451 17.4143 3Z" fill="black"/>
<path fill-rule="evenodd" clip-rule="evenodd" d="M14.7309 5.96413L13.3128 7.38218C13.7339 7.7495 14.0004 8.29025 14.001 8.89214C14.0004 9.49404 13.7339 10.0336 13.3128 10.3998L14.7237 11.8107C15.5073 11.0813 15.9978 10.0411 15.999 8.88618C15.9978 7.73478 15.5103 6.69527 14.7309 5.96413Z" fill="black"/>
</svg>
