<svg width="24" height="24" viewBox="0 0 24 24" fill="none" xmlns="http://www.w3.org/2000/svg">
<path fill-rule="evenodd" clip-rule="evenodd" d="M11.9975 13C14.7579 13.0014 16.9972 10.7654 17 8.005C16.9972 5.24455 14.7579 2.99862 11.9975 3C9.23705 3.00138 7 5.23955 7 8C7 10.7604 9.23705 12.9986 11.9975 13ZM11.9985 11.005C13.6548 11.0058 14.9983 9.66427 15 8.008C14.9983 6.35173 13.6548 5.00417 11.9985 5.005C10.3422 5.00583 9 6.34873 9 8.005C9 9.66127 10.3422 11.0042 11.9985 11.005Z" fill="black"/>
<path fill-rule="evenodd" clip-rule="evenodd" d="M4 22H6L6 21.994C6 18.6815 8.68446 15.9957 11.997 15.994C15.3095 15.9923 17.9967 18.6875 18 22L20 22.008C19.9956 17.5913 16.4127 13.9978 11.996 14C7.57929 14.0022 4 17.5833 4 22Z" fill="black"/>
</svg>
