<svg width="24" height="24" viewBox="0 0 24 24" fill="none" xmlns="http://www.w3.org/2000/svg">
<path fill-rule="evenodd" clip-rule="evenodd" d="M2 4H22V20H2V4ZM4 18V6H20V18H4Z" fill="black"/>
<path d="M11.001 10.002C10.9999 11.1062 10.1042 12.0006 8.99998 12C7.8958 11.9994 7.00098 11.1042 7.00098 10C7.00098 8.89582 7.8958 8.00055 8.99998 8C10.1042 7.99945 10.9999 8.89782 11.001 10.002Z" fill="black"/>
<path d="M6.00148 16C6.00148 14.3437 7.34371 13.0008 8.99998 13C10.6562 12.9992 11.9998 14.3467 12.0015 16.003L6.00148 16Z" fill="black"/>
<path d="M13 9H18V11.002H13V9Z" fill="black"/>
<path d="M14 13V15H18V13H14Z" fill="black"/>
</svg>
