<svg width="24" height="24" viewBox="0 0 24 24" fill="none" xmlns="http://www.w3.org/2000/svg">
<path fill-rule="evenodd" clip-rule="evenodd" d="M18.9975 20C21.7579 20.0014 23.9972 17.7654 24 15.005C23.9975 12.5034 22.1582 10.4243 19.7588 10.0574C18.8851 6.58029 15.7402 3.99813 11.996 4C9.004 4.0015 6.39631 5.64536 5.02529 8.07878C2.175 8.54442 0 11.0183 0 14C0 17.2808 2.63325 19.9468 5.90193 19.9992L6.09663 19.9992L11.996 20H12.0042H18.9975ZM22 15.003C21.9983 16.6593 20.6548 18.0008 18.9985 18H17.2916L14.9996 18H12.0031H11.997H10.4722L6.70835 18H6.00208H5.998C3.78964 17.9989 2 16.2084 2 14C2 12.4586 2.87189 11.1207 4.14949 10.4529C4.70229 10.1639 5.33105 10.0003 5.998 10C6.112 9.99994 6.22489 10.0047 6.33648 10.014C6.57563 9.33198 6.9345 8.70624 7.38789 8.162C8.48786 6.84161 10.1442 6.00093 11.997 6C14.6686 5.99867 16.9334 7.75147 17.7116 10.1676C17.8982 10.7472 17.9994 11.3651 18 12.006C17.9999 12.0614 17.9991 12.1166 17.9976 12.1716C18.3106 12.0606 18.6475 12.0002 18.9985 12C19.349 11.9998 19.6855 12.06 19.9982 12.1708C21.1633 12.5833 21.9987 13.6972 22 15.003Z" fill="white"/>
</svg>
