<svg width="24" height="24" viewBox="0 0 24 24" fill="none" xmlns="http://www.w3.org/2000/svg">
<path fill-rule="evenodd" clip-rule="evenodd" d="M4 2V22H20V8V7L15 2H14H4ZM6 20V4H12V10H18V20H6ZM14 8H18L14 4V8Z" fill="white"/>
<path d="M11.147 17.416C11.396 17.62 11.631 17.813 11.839 17.998L11.838 18C12.0329 17.8275 12.2505 17.6494 12.4808 17.4609L12.499 17.446L12.556 17.399L12.559 17.3965C13.7245 16.446 15.174 15.2637 15.174 13.799C15.1741 13.3155 14.9797 12.8523 14.6345 12.5137C14.2893 12.1751 13.8224 11.9896 13.339 11.999C12.7668 11.9976 12.2212 12.2402 11.839 12.666C11.4569 12.2401 10.9112 11.9975 10.339 11.999C9.85506 11.9885 9.3873 12.1734 9.04128 12.5119C8.69526 12.8504 8.50016 13.3139 8.5 13.798C8.5 15.2567 9.93838 16.4302 11.0944 17.3735L11.1 17.378L11.147 17.416Z" fill="white"/>
</svg>
