<svg width="24" height="24" viewBox="0 0 24 24" fill="none" xmlns="http://www.w3.org/2000/svg">
<path fill-rule="evenodd" clip-rule="evenodd" d="M22 12C22 6.47715 17.5228 2 12 2C6.47715 2 2 6.47715 2 12C2 17.5228 6.47715 22 12 22C17.5203 21.9939 21.9939 17.5203 22 12ZM11.996 19.992C16.4127 19.9942 19.9956 16.4167 20 12C19.9956 7.58329 16.4127 3.98979 11.996 3.992C7.57929 3.99421 4 7.57528 4 11.992C4 16.4087 7.57929 19.9898 11.996 19.992Z" fill="white"/>
<path d="M11.001 9.002C10.9999 10.1062 10.1042 11.0006 9 11C7.89582 10.9994 7.001 10.1042 7.001 9C7.001 7.89582 7.89582 7.00055 9 7C10.1042 6.99945 10.9999 7.89782 11.001 9.002Z" fill="white"/>
<path d="M17 9.002C16.9989 10.1062 16.1032 11.0006 14.999 11C13.8948 10.9994 13 10.1042 13 9C13 7.89582 13.8948 7.00055 14.999 7C16.1032 6.99945 16.9989 7.89782 17 9.002Z" fill="white"/>
<path fill-rule="evenodd" clip-rule="evenodd" d="M8 17L10.001 17.004C10.001 15.8998 10.8958 15.0046 12 15.004C13.1022 15.0034 13.9966 15.8986 14.001 17H16.001C15.9966 14.7935 14.205 12.9989 11.998 13C9.78964 13.0011 8 14.7916 8 17Z" fill="white"/>
</svg>
