<svg width="24" height="24" viewBox="0 0 24 24" fill="none" xmlns="http://www.w3.org/2000/svg">
<path d="M9 22V20H15V22H9Z" fill="white"/>
<path fill-rule="evenodd" clip-rule="evenodd" d="M5 9C5 5.13537 8.13188 2.00193 11.9965 2C15.8611 1.99807 18.9961 5.14238 19 9.007C18.9972 11.7968 17.3627 14.2039 15 15.3264V19H9V15.3264C6.63497 14.2029 5 11.7923 5 9ZM6.99414 8.995C6.99414 6.23455 9.23119 3.99638 11.9916 3.995C14.7521 3.99362 16.9914 6.23955 16.9941 9C16.9925 10.6313 16.2098 12.0795 15 12.991C14.4188 13.4288 13.7391 13.7428 13 13.8938V15.9291V17H11V15.9291V13.8962C10.2613 13.7471 9.58164 13.4353 9 12.9998C7.78219 12.0878 6.99414 10.6334 6.99414 8.995Z" fill="white"/>
</svg>
