<svg width="24" height="24" viewBox="0 0 24 24" fill="none" xmlns="http://www.w3.org/2000/svg">
<path d="M17.996 10.2428C17.9955 10.7949 17.5476 11.2421 16.9955 11.2418C16.4434 11.2415 15.996 10.7939 15.996 10.2418C15.996 9.68969 16.4434 9.24206 16.9955 9.24178C17.5476 9.2415 17.9955 9.69069 17.996 10.2428Z" fill="white"/>
<path d="M16.5948 5.74378C16.5936 6.84796 15.6979 7.74233 14.5938 7.74178C13.4896 7.74123 12.5948 6.84596 12.5948 5.74178C12.5948 4.6376 13.4896 3.74233 14.5938 3.74178C15.6979 3.74123 16.5936 4.6396 16.5948 5.74378Z" fill="white"/>
<path fill-rule="evenodd" clip-rule="evenodd" d="M2 11.9545C2 17.4773 6.47715 21.9545 12 21.9545C16.3255 21.9497 20.0083 19.2021 21.4028 15.3573C21.685 14.5793 21.8735 13.7564 21.9547 12.9022C21.2893 13.2813 20.5644 13.5677 19.7973 13.7438C19.2183 13.8767 18.6154 13.9468 17.996 13.9465C13.5793 13.9443 10 10.3632 10 5.94647C10 5.3285 10.0701 4.7269 10.2027 4.14917C10.3781 3.38525 10.6628 2.66306 11.0396 1.99999C10.1891 2.08104 9.36963 2.26861 8.59475 2.54922C4.74839 3.9421 2 7.62733 2 11.9545ZM14.0391 18.5C14.5912 18.5003 15.039 18.0531 15.0396 17.501C15.039 16.9489 14.5912 16.4997 14.0391 16.5C13.487 16.5003 13.0396 16.9479 13.0396 17.5C13.0396 18.0521 13.487 18.4997 14.0391 18.5ZM9.01675 17.3573C10.1209 17.3578 11.0166 16.4635 11.0177 15.3593C11.0166 14.2551 10.1209 13.3567 9.01675 13.3573C7.91257 13.3578 7.01775 14.2531 7.01775 15.3573C7.01775 16.4615 7.91257 17.3567 9.01675 17.3573ZM6.4995 11.2428C7.05159 11.2431 7.49945 10.7959 7.5 10.2438C7.49945 9.69169 7.05159 9.2425 6.4995 9.24278C5.94741 9.24305 5.5 9.69069 5.5 10.2428C5.5 10.7949 5.94741 11.2425 6.4995 11.2428Z" fill="white"/>
</svg>
