<svg width="24" height="24" viewBox="0 0 24 24" fill="none" xmlns="http://www.w3.org/2000/svg">
<path d="M15.0396 17.501C15.039 18.0531 14.5912 18.5003 14.0391 18.5C13.487 18.4997 13.0396 18.0521 13.0396 17.5C13.0396 16.9479 13.487 16.5003 14.0391 16.5C14.5912 16.4997 15.039 16.9489 15.0396 17.501Z" fill="white"/>
<path d="M16.5948 5.74378C16.5936 6.84796 15.6979 7.74233 14.5938 7.74178C13.4896 7.74123 12.5948 6.84596 12.5948 5.74178C12.5948 4.6376 13.4896 3.74233 14.5938 3.74178C15.6979 3.74123 16.5936 4.6396 16.5948 5.74378Z" fill="white"/>
<path d="M11.0177 15.3593C11.0166 16.4635 10.1209 17.3578 9.01675 17.3573C7.91257 17.3567 7.01775 16.4615 7.01775 15.3573C7.01775 14.2531 7.91257 13.3578 9.01675 13.3573C10.1209 13.3567 11.0166 14.2551 11.0177 15.3593Z" fill="white"/>
<path d="M7.5 10.2438C7.49945 10.7959 7.05159 11.2431 6.4995 11.2428C5.94741 11.2425 5.5 10.7949 5.5 10.2428C5.5 9.69069 5.94741 9.24305 6.4995 9.24278C7.05159 9.2425 7.49945 9.69169 7.5 10.2438Z" fill="white"/>
<path fill-rule="evenodd" clip-rule="evenodd" d="M2 11.9545C2 17.4773 6.47715 21.9545 12 21.9545C16.3255 21.9497 20.0083 19.2021 21.4028 15.3573C21.685 14.5793 21.8735 13.7564 21.9547 12.9022C21.2893 13.2813 20.5644 13.5677 19.7973 13.7438C19.2183 13.8767 18.6154 13.9468 17.996 13.9465C13.5793 13.9443 10 10.3632 10 5.94647C10 5.3285 10.0701 4.7269 10.2027 4.14917C10.3781 3.38525 10.6628 2.66306 11.0396 1.99999C10.1891 2.08104 9.36963 2.26861 8.59475 2.54922C4.74839 3.9421 2 7.62733 2 11.9545ZM4 11.9465C4 16.3632 7.57929 19.9443 11.996 19.9465C14.974 19.948 17.5729 18.3221 18.9514 15.9088C18.6383 15.9387 18.3209 15.9541 18 15.9545C12.4772 15.9545 8 11.4773 8 5.95447C8 5.62925 8.01552 5.30766 8.04587 4.99039C5.62932 6.36702 4 8.96655 4 11.9465Z" fill="white"/>
</svg>
