<svg width="24" height="24" viewBox="0 0 24 24" fill="none" xmlns="http://www.w3.org/2000/svg">
<path d="M2 12C2 17.5228 6.47715 22 12 22C16.3255 21.9952 20.0083 19.2477 21.4028 15.4028C21.685 14.6248 21.8735 13.8019 21.9547 12.9478C21.2893 13.3268 20.5644 13.6132 19.7973 13.7893C19.2183 13.9222 18.6154 13.9923 17.996 13.992C13.5793 13.9898 10 10.4087 10 5.992C10 5.37404 10.0701 4.77243 10.2027 4.1947C10.3781 3.43078 10.6628 2.7086 11.0396 2.04552C10.1891 2.12657 9.36963 2.31414 8.59475 2.59475C4.74839 3.98764 2 7.67286 2 12Z" fill="white"/>
</svg>
