<svg width="24" height="24" viewBox="0 0 24 24" fill="none" xmlns="http://www.w3.org/2000/svg">
<path fill-rule="evenodd" clip-rule="evenodd" d="M22 12C22 6.47715 17.5228 2 12 2C6.47715 2 2 6.47715 2 12C2 17.5228 6.47715 22 12 22C17.5203 21.9939 21.9939 17.5203 22 12ZM4 11.992C4 7.91258 7.05348 4.54604 11 4.0539V11L5.43502 16.565C4.53049 15.2689 4 13.6924 4 11.992ZM11 19.9301V13.5L6.60282 17.8972C7.79389 18.9864 9.3156 19.7201 11 19.9301ZM13.0001 19.9301L12.9992 13.5L17.3968 17.8976C16.2057 18.9866 14.6841 19.7201 13.0001 19.9301ZM20 12C19.9959 7.9226 16.9421 4.54679 12.9979 4.0539L13 11L18.565 16.565C19.468 15.271 19.9983 13.6975 20 12Z" fill="white"/>
</svg>
