<svg width="24" height="24" viewBox="0 0 24 24" fill="none" xmlns="http://www.w3.org/2000/svg">
<path fill-rule="evenodd" clip-rule="evenodd" d="M11.9975 17C14.7579 17.0014 16.9972 14.7654 17 12.005C16.9972 9.24455 14.7579 6.99862 11.9975 7C9.23705 7.00138 7 9.23955 7 12C7 14.7604 9.23705 16.9986 11.9975 17ZM11.9985 15C13.6548 15.0008 14.9983 13.6593 15 12.003C14.9983 10.3467 13.6548 8.99917 11.9985 9C10.3422 9.00083 9 10.3437 9 12C9 13.6563 10.3422 14.9992 11.9985 15Z" fill="white"/>
<path d="M11 2V5H13V2H11Z" fill="white"/>
<path d="M19 11V13H22V11H19Z" fill="white"/>
<path d="M11 22H13V19H11V22Z" fill="white"/>
<path d="M2 11H5V13H2V11Z" fill="white"/>
<path d="M4.22168 5.63604L6.343 7.75736L7.75721 6.34315L5.63589 4.22183L4.22168 5.63604Z" fill="white"/>
<path d="M16.2425 6.34315L17.6567 7.75736L19.778 5.63604L18.3638 4.22183L16.2425 6.34315Z" fill="white"/>
<path d="M4.08579 18.4995L5.5 19.9138L7.62132 17.7924L6.20711 16.3782L4.08579 18.4995Z" fill="white"/>
<path d="M16.3785 17.7929L18.4999 19.9142L19.9141 18.5L17.7927 16.3787L16.3785 17.7929Z" fill="white"/>
</svg>
