<svg width="24" height="24" viewBox="0 0 24 24" fill="none" xmlns="http://www.w3.org/2000/svg">
<path d="M6 14L12 8L18 14L16.5 15.5L12 11L7.5 15.5L6 14Z" fill="white"/>
<path fill-rule="evenodd" clip-rule="evenodd" d="M22 12C22 17.5228 17.5228 22 12 22C6.47715 22 2 17.5228 2 12C2 6.47715 6.47715 2 12 2C17.5203 2.00606 21.9939 6.47967 22 12ZM11.996 4.008C16.4127 4.00579 19.9956 7.58329 20 12C19.9956 16.4167 16.4127 20.0102 11.996 20.008C7.57929 20.0058 4 16.4247 4 12.008C4 7.59128 7.57929 4.01021 11.996 4.008Z" fill="white"/>
</svg>
