<svg width="24" height="24" viewBox="0 0 24 24" fill="none" xmlns="http://www.w3.org/2000/svg">
<path fill-rule="evenodd" clip-rule="evenodd" d="M4 22V2H14H15L20 7V8V20.4405V22H18.7127H4ZM6 20V4H12H14L18 8V10V18.4392V20H16.7123H6Z" fill="black"/>
<path fill-rule="evenodd" clip-rule="evenodd" d="M16.7123 20H18V18.4392L16.235 16.6731C17.6575 14.5167 17.2173 11.6336 15.216 10C13.2147 8.36643 10.3018 8.51251 8.474 10.3381C6.6491 12.1662 6.50364 15.0788 8.13733 17.0797C9.77101 19.0805 12.6538 19.5205 14.81 18.0981L16.7123 20ZM9.07049 13.307C9.35248 11.8941 10.5932 10.8772 12.034 10.8781C12.8354 10.8764 13.6042 11.1955 14.169 11.7641C15.1871 12.7836 15.3432 14.3802 14.542 15.5776C13.7407 16.775 12.2052 17.2397 10.8745 16.6875C9.54381 16.1352 8.78849 14.7199 9.07049 13.307Z" fill="black"/>
</svg>
