<svg width="24" height="24" viewBox="0 0 24 24" fill="none" xmlns="http://www.w3.org/2000/svg">
<path d="M2 4H22V20H14V18H20V6H4V8H2V4Z" fill="black"/>
<path d="M2.00397 17.98C3.10815 17.9794 4.00387 18.8778 4.00497 19.982L2 20L2.00397 17.98Z" fill="black"/>
<path d="M2.00198 13.99C5.31451 13.9883 8.00166 16.6835 8.00497 19.996L6.00497 20C6.00276 17.7916 4.21133 15.9949 2.00298 15.996L2.00198 13.99Z" fill="black"/>
<path d="M2.004 9.982C7.52685 9.982 12.004 14.4592 12.004 19.982L10.004 19.99C9.99958 15.5733 6.41672 11.9798 2 11.982L2.004 9.982Z" fill="black"/>
</svg>
