<svg width="24" height="24" viewBox="0 0 24 24" fill="none" xmlns="http://www.w3.org/2000/svg">
<path d="M8.25092 8.25062L8.50031 8.00001L9.99988 7.99958L8.01993 6.01962H8.00031L7.01012 7.00981L8.25092 8.25062Z" fill="white"/>
<path fill-rule="evenodd" clip-rule="evenodd" d="M17.0101 17.0098L19.0003 19L20.0003 18L18.0101 16.0098L16.7524 14.7521L14.0012 12.0009L12.018 10.0177L9.99988 7.99958L8.50031 8.00001L8.25092 8.25062L7.01012 7.00981L8.00031 6.01962H8.01993L6.00031 4L5.00031 5L7.01012 7.00981L2.00031 12.0196L8.00031 18.0196H16.0003L17.0101 17.0098ZM8.25092 8.25062L10.5954 10.5951C10.2286 10.9577 10.0013 11.4611 10.0013 12.0176C10.0013 13.1218 10.8961 14.0171 12.0003 14.0176C12.5572 14.0179 13.061 13.7906 13.4238 13.4235L15.7499 15.7496L15.5003 15.998L8.50031 16L4.50031 12.0196L8.25092 8.25062ZM19.0101 15.0098L17.7548 13.7545L19.5003 12.0176L15.5003 7.99801L11.9993 7.99901L10.0199 6.01962H16.0003L22.0003 12.0196L19.0101 15.0098Z" fill="white"/>
</svg>
