<svg width="24" height="24" viewBox="0 0 24 24" fill="none" xmlns="http://www.w3.org/2000/svg">
<path d="M18.6802 4H16.6802V6.55709C15.4902 5.622 13.9896 5.0643 12.3588 5.0643C8.4928 5.0643 5.3588 8.19831 5.3588 12.0643C5.3588 15.9303 8.4928 19.0643 12.3588 19.0643C14.5093 19.0643 16.4333 18.0946 17.7173 16.5685L16.098 15.3837C15.1821 16.4147 13.8463 17.0643 12.3588 17.0643C9.59737 17.0643 7.3588 14.8257 7.3588 12.0643C7.3588 9.30288 9.59737 7.0643 12.3588 7.0643C13.4456 7.0643 14.4515 7.41107 15.2717 8L12.6802 8V10H18.6802V4Z" fill="white"/>
</svg>
