<svg width="24" height="24" viewBox="0 0 24 24" fill="none" xmlns="http://www.w3.org/2000/svg">
<path fill-rule="evenodd" clip-rule="evenodd" d="M13.4766 14.8916C10.9343 16.6991 7.43107 16.257 5.4175 13.8746C3.40394 11.4921 3.55179 7.96422 5.75763 5.75863C7.96289 3.55208 11.4912 3.40359 13.874 5.41705C16.2569 7.4305 16.6992 10.9341 14.8916 13.4766L19.6066 18.1926L18.1926 19.6066L13.4766 14.8916ZM6.0821 9.18807C6.46732 7.33131 8.10333 6.00019 9.99963 6.00062C11.061 5.99776 12.0794 6.41981 12.8276 7.17263L12.8396 7.18463L12.8827 7.22768L12.9166 7.26463C14.2137 8.64795 14.3612 10.7519 13.2699 12.3027C12.1785 13.8535 10.1483 14.4248 8.40831 13.6709C6.66834 12.9169 5.69689 11.0448 6.0821 9.18807Z" fill="white"/>
</svg>
