<svg width="24" height="24" viewBox="0 0 24 24" fill="none" xmlns="http://www.w3.org/2000/svg">
<path d="M17.5746 18.9986L12.8076 14.2326C10.6514 15.655 7.76862 15.215 6.13493 13.2141C4.50125 11.2133 4.6467 8.30073 6.4716 6.4726C8.29941 4.64699 11.2123 4.50091 13.2136 6.13449C15.2149 7.76806 15.6552 10.6512 14.2326 12.8076L18.9976 17.5756L17.5746 18.9986ZM10.0316 7.01259C8.59085 7.01168 7.35009 8.02862 7.06809 9.4415C6.7861 10.8544 7.54142 12.2697 8.87213 12.822C10.2028 13.3742 11.7383 12.9095 12.5396 11.7121C13.3408 10.5147 13.1847 8.91806 12.1666 7.8986C11.6019 7.32994 10.833 7.0109 10.0316 7.01259Z" fill="white"/>
</svg>
