<svg width="24" height="24" viewBox="0 0 24 24" fill="none" xmlns="http://www.w3.org/2000/svg">
<path d="M5.33878 4H7.33878V6.55709C8.52879 5.622 10.0294 5.0643 11.6602 5.0643C15.5262 5.0643 18.6602 8.19831 18.6602 12.0643C18.6602 15.9303 15.5262 19.0643 11.6602 19.0643C9.50973 19.0643 7.58574 18.0946 6.30167 16.5685L7.92099 15.3837C8.83689 16.4147 10.1727 17.0643 11.6602 17.0643C14.4216 17.0643 16.6602 14.8257 16.6602 12.0643C16.6602 9.30288 14.4216 7.0643 11.6602 7.0643C10.5734 7.0643 9.56753 7.41107 8.74727 8L11.3388 8V10H5.33878V4Z" fill="white"/>
</svg>
