<svg width="24" height="24" viewBox="0 0 24 24" fill="none" xmlns="http://www.w3.org/2000/svg">
<path fill-rule="evenodd" clip-rule="evenodd" d="M22 12C22 6.47715 17.5228 2 12 2C6.47715 2 2 6.47715 2 12C2 17.5228 6.47715 22 12 22C17.5203 21.9939 21.9939 17.5203 22 12ZM11.996 19.992C7.57929 19.9898 4 16.4087 4 11.992C4 7.91258 7.05348 4.54604 11 4.0539V13H19.9371C19.4412 16.9443 16.074 19.994 11.996 19.992ZM13 10.9997H19.9371C19.4825 7.38237 16.6156 4.50694 13 4.05416V10.9997Z" fill="black"/>
</svg>
