<svg width="24" height="24" viewBox="0 0 24 24" fill="none" xmlns="http://www.w3.org/2000/svg">
<path fill-rule="evenodd" clip-rule="evenodd" d="M22 12C22 6.47715 17.5228 2 12 2C6.47715 2 2 6.47715 2 12C2 17.5228 6.47715 22 12 22C17.5203 21.9939 21.9939 17.5203 22 12ZM11.996 19.992C16.4127 19.9942 19.9956 16.4167 20 12C19.9956 7.58329 16.4127 3.98979 11.996 3.992C7.57929 3.99421 4 7.57528 4 11.992C4 16.4087 7.57929 19.9898 11.996 19.992Z" fill="white"/>
<path d="M10.5149 12.0043L7.26495 15.2543L8.76495 16.7543L12.0149 13.5043L15.2649 16.7543L16.7649 15.2543L13.5149 12.0043L16.7649 8.75426L15.2649 7.25426L12.0149 10.5043L8.76495 7.25426L7.26495 8.75426L10.5149 12.0043Z" fill="white"/>
</svg>
