<svg width="24" height="24" viewBox="0 0 24 24" fill="none" xmlns="http://www.w3.org/2000/svg">
<path fill-rule="evenodd" clip-rule="evenodd" d="M12.0577 21C16.4744 21.0022 20.0573 17.4247 20.0617 13.008C20.0573 8.59129 16.4744 4.99779 12.0577 5C7.64101 5.00221 4.06173 8.58328 4.06173 13C4.06173 17.4167 7.64101 20.9978 12.0577 21ZM12.0587 19C15.3713 19.0017 18.0584 16.3185 18.0617 13.006C18.0584 9.69346 15.3713 6.99835 12.0587 7C8.74619 7.00166 6.06173 9.68746 6.06173 13C6.06173 16.3125 8.74619 18.9983 12.0587 19Z" fill="white"/>
<path d="M2.50017 6.5L6.06173 3L7.56173 4.5L4.00017 8L2.50017 6.5Z" fill="white"/>
<path d="M20.5002 8.06155L17.0002 4.5L18.5002 3L22.0002 6.56155L20.5002 8.06155Z" fill="white"/>
<path d="M11.0002 9H13.0002V12H16.0002V14H11.0002V9Z" fill="white"/>
</svg>
