<svg width="24" height="24" viewBox="0 0 24 24" fill="none" xmlns="http://www.w3.org/2000/svg">
<path fill-rule="evenodd" clip-rule="evenodd" d="M2 4V20H22V4H2ZM20 18H4V6H20V18Z" fill="white"/>
<path d="M14 14C14.0005 13.4938 14.189 13.0317 14.4995 12.6797C14.8662 12.2639 15.403 12.0017 16.001 12.002C17.1052 12.0026 18 12.8978 18 14.002C18 15.1062 17.1052 16.0014 16.001 16.002C15.4036 16.0023 14.8672 15.7394 14.5005 15.3232C14.1894 14.9702 14.0005 14.5068 14 14Z" fill="white"/>
<path fill-rule="evenodd" clip-rule="evenodd" d="M14 14C14.0005 13.4938 14.189 13.0317 14.4995 12.6797C14.8662 12.2639 15.403 12.0017 16.001 12.002C17.1052 12.0026 18 12.8978 18 14.002C18 15.1062 17.1052 16.0014 16.001 16.002C15.4036 16.0023 14.8672 15.7394 14.5005 15.3232C14.1894 14.9702 14.0005 14.5068 14 14Z" fill="white"/>
<path fill-rule="evenodd" clip-rule="evenodd" d="M13 12.002C11.8958 12.0014 11.0001 12.8958 10.999 14C11.0001 15.1042 11.8958 16.0026 13 16.002C13.2351 16.0019 13.4607 15.9612 13.6702 15.8866C13.2518 15.3702 13.0007 14.7124 13 13.997C13.0007 13.2844 13.2499 12.63 13.6654 12.1157C13.4573 12.0422 13.2333 12.0021 13 12.002Z" fill="white"/>
</svg>
