<svg width="24" height="24" viewBox="0 0 24 24" fill="none" xmlns="http://www.w3.org/2000/svg">
<path d="M12 20.9841C11.355 20.4121 10.626 19.8171 9.85502 19.1841H9.84502C7.13002 16.9641 4.05302 14.4521 2.69402 11.4421C2.24754 10.4839 2.01093 9.44127 2.00001 8.38414C1.99703 6.93362 2.57879 5.54313 3.61383 4.52691C4.64887 3.51069 6.04981 2.95453 7.50002 2.98414C8.68065 2.986 9.83586 3.32722 10.828 3.96714C11.264 4.25011 11.6584 4.59239 12 4.98414C12.3435 4.59393 12.7381 4.25185 13.173 3.96714C14.1648 3.32709 15.3197 2.98586 16.5 2.98414C17.9502 2.95453 19.3512 3.51069 20.3862 4.52691C21.4213 5.54313 22.003 6.93362 22 8.38414C21.9898 9.44296 21.7532 10.4873 21.306 11.4471C19.947 14.4571 16.871 16.9681 14.156 19.1841L14.146 19.1921C13.374 19.8211 12.646 20.4161 12.001 20.9921L12 20.9841ZM7.50002 4.98414C6.56853 4.97248 5.6701 5.32898 5.00002 5.97614C4.35441 6.6103 3.99358 7.47919 3.99994 8.38414C4.01135 9.15464 4.18585 9.91399 4.51202 10.6121C5.15353 11.9108 6.01913 13.0862 7.06902 14.0841C8.06002 15.0841 9.20002 16.0521 10.186 16.8661C10.459 17.0911 10.737 17.3181 11.015 17.5451L11.19 17.6881C11.457 17.9061 11.733 18.1321 12 18.3541L12.013 18.3421L12.019 18.3371H12.025L12.034 18.3301H12.039H12.044L12.062 18.3151L12.103 18.2821L12.11 18.2761L12.121 18.2681H12.127L12.136 18.2601L12.8 17.7151L12.974 17.5721C13.255 17.3431 13.533 17.1161 13.806 16.8911C14.792 16.0771 15.933 15.1101 16.924 14.1051C17.9741 13.1077 18.8397 11.9327 19.481 10.6341C19.8131 9.92994 19.9901 9.16264 20.0001 8.38414C20.0042 7.48198 19.6435 6.61643 19 5.98414C18.3312 5.33406 17.4326 4.97462 16.5 4.98414C15.3619 4.97447 14.274 5.45151 13.51 6.29514L12 8.03514L10.49 6.29514C9.72609 5.45151 8.6381 4.97447 7.50002 4.98414Z" fill="white"/>
</svg>
