<svg width="24" height="24" viewBox="0 0 24 24" fill="none" xmlns="http://www.w3.org/2000/svg">
<path fill-rule="evenodd" clip-rule="evenodd" d="M22 12C22 6.47715 17.5228 2 12 2C6.47715 2 2 6.47715 2 12C2 17.5228 6.47715 22 12 22C17.5203 21.9939 21.9939 17.5203 22 12ZM11.996 19.992C16.4127 19.9942 19.9956 16.4167 20 12C19.9956 7.58329 16.4127 3.98979 11.996 3.992C7.57929 3.99421 4 7.57528 4 11.992C4 16.4087 7.57929 19.9898 11.996 19.992Z" fill="white"/>
<path d="M11 15H13C13.0847 14.0328 13.6177 13.1612 14.44 12.645C15.3497 12.0603 15.9284 11.079 16 10C16.0161 8.57096 15.2685 7.24188 14.039 6.51342C12.8094 5.78497 11.2846 5.76782 10.039 6.46842C8.79333 7.16903 8.01608 8.48096 8 9.91003V10H10C10 8.89546 10.8954 8.00003 12 8.00003C13.1046 8.00003 14 8.89546 14 10C14 10.879 13.4313 11.315 12.7722 11.8203L12.77 11.822C11.6461 12.4808 10.9684 13.6977 11 15Z" fill="white"/>
<path d="M13 18H11V16H13V18Z" fill="white"/>
</svg>
