<svg width="24" height="24" viewBox="0 0 24 24" fill="none" xmlns="http://www.w3.org/2000/svg">
<path fill-rule="evenodd" clip-rule="evenodd" d="M22 12C22 6.47715 17.5228 2 12 2C6.47715 2 2 6.47715 2 12C2 17.5228 6.47715 22 12 22C17.5203 21.9939 21.9939 17.5203 22 12ZM11 15C10.9684 13.6977 11.6461 12.4808 12.77 11.822L12.7722 11.8203C13.4313 11.315 14 10.879 14 10C14 8.89546 13.1046 8.00003 12 8.00003C10.8954 8.00003 10 8.89546 10 10H8V9.91003C8.01608 8.48096 8.79333 7.16903 10.039 6.46842C11.2846 5.76782 12.8094 5.78497 14.039 6.51342C15.2685 7.24188 16.0161 8.57096 16 10C15.9284 11.079 15.3497 12.0603 14.44 12.645C13.6177 13.1612 13.0847 14.0328 13 15H11ZM11 16V18H13V16H11Z" fill="white"/>
</svg>
