<svg width="24" height="24" viewBox="0 0 24 24" fill="none" xmlns="http://www.w3.org/2000/svg">
<path d="M8.999 11.998C10.1032 11.9986 10.9989 11.1042 11 10C10.9989 8.89582 10.1032 7.99745 8.999 7.998C7.89482 7.99855 7 8.89382 7 9.998C7 11.1022 7.89482 11.9974 8.999 11.998Z" fill="white"/>
<path fill-rule="evenodd" clip-rule="evenodd" d="M3 21V3H21V21H3ZM5 19V5H19V16L15 12L11.5 15.5L10 14L5 19ZM11 10C10.9989 11.1042 10.1032 11.9986 8.999 11.998C7.89482 11.9974 7 11.1022 7 9.998C7 8.89382 7.89482 7.99855 8.999 7.998C10.1032 7.99745 10.9989 8.89582 11 10Z" fill="white"/>
</svg>
