<svg width="24" height="24" viewBox="0 0 24 24" fill="none" xmlns="http://www.w3.org/2000/svg">
<path d="M8 14.0017C7.99889 15.1059 7.10318 16.0003 5.999 15.9997C4.89482 15.9992 4 15.1039 4 13.9997C4 12.8955 4.89482 12.0003 5.999 11.9997C7.10318 11.9992 7.99889 12.8975 8 14.0017Z" fill="white"/>
<path d="M14.001 12.002C13.9999 13.1062 13.1042 14.0005 12 14C10.8958 13.9994 10.001 13.1042 10.001 12C10.001 10.8958 10.8958 10.0005 12 9.99999C13.1042 9.99944 13.9999 10.8978 14.001 12.002Z" fill="white"/>
<path d="M20 10.004C19.9989 11.1082 19.1032 12.0025 17.999 12.002C16.8948 12.0014 16 11.1062 16 10.002C16 8.89781 16.8948 8.00254 17.999 8.00199C19.1032 8.00144 19.9989 8.89981 20 10.004Z" fill="white"/>
</svg>
