<svg width="24" height="24" viewBox="0 0 24 24" fill="none" xmlns="http://www.w3.org/2000/svg">
<path fill-rule="evenodd" clip-rule="evenodd" d="M14 12.002C13.9989 13.1062 13.1032 14.0006 11.999 14C10.8948 13.9994 10 13.1042 10 12C10 10.8958 10.8948 10.0006 11.999 10C13.1032 9.99945 13.9989 10.8978 14 12.002ZM16.001 12.004C15.9988 14.2124 14.2074 16.0011 11.999 16C9.79064 15.9989 8.001 14.2084 8.001 12C8.001 9.79164 9.79064 8.00111 11.999 8C14.2074 7.9989 15.9988 9.79564 16.001 12.004Z" fill="white"/>
<path fill-rule="evenodd" clip-rule="evenodd" d="M11.999 16C14.2074 16.0011 15.9988 14.2124 16.001 12.004C15.9988 9.79564 14.2074 7.9989 11.999 8C9.79064 8.00111 8.001 9.79164 8.001 12C8.001 14.2084 9.79064 15.9989 11.999 16ZM11.999 14C13.1032 14.0006 13.9989 13.1062 14 12.002C13.9989 10.8978 13.1032 9.99945 11.999 10C10.8948 10.0006 10 10.8958 10 12C10 13.1042 10.8948 13.9994 11.999 14Z" fill="white"/>
<path fill-rule="evenodd" clip-rule="evenodd" d="M11.999 2L21 8V16L11.999 22L3 16V8L11.999 2ZM5 15V9L11.999 4.5L19 9V15L11.999 19.5L5 15Z" fill="white"/>
</svg>
