<svg width="24" height="24" viewBox="0 0 24 24" fill="none" xmlns="http://www.w3.org/2000/svg">
<path d="M7 6V8H9V6H7Z" fill="black"/>
<path fill-rule="evenodd" clip-rule="evenodd" d="M7 6V8H9V6H7Z" fill="black"/>
<path fill-rule="evenodd" clip-rule="evenodd" d="M7 6V8H9V6H7Z" fill="black"/>
<path fill-rule="evenodd" clip-rule="evenodd" d="M7 6V8H9V6H7Z" fill="black"/>
<path fill-rule="evenodd" clip-rule="evenodd" d="M3 3V11H4V20H12V17L15 20L21 14L18 11H21V3H3ZM5 9V5H19V9H5ZM6 18V11L10 15V18H6ZM12 11H10H9L10 12L12 14L15 17L18 14L15 11H12Z" fill="black"/>
</svg>
