<svg width="24" height="24" viewBox="0 0 24 24" fill="none" xmlns="http://www.w3.org/2000/svg">
<path d="M15 10.003C14.9983 11.6593 13.6548 13.0008 11.9985 13C10.3422 12.9992 9 11.6563 9 10C9 8.34373 10.3422 7.00083 11.9985 7C13.6548 6.99917 14.9983 8.34673 15 10.003Z" fill="white"/>
<path fill-rule="evenodd" clip-rule="evenodd" d="M21 3H3V21H21V3ZM5 19V5H19V19H17C16.9945 16.2418 14.7563 13.9986 11.9975 14C9.23705 14.0014 7 16.2396 7 19H5ZM15 10.003C14.9983 11.6593 13.6548 13.0008 11.9985 13C10.3422 12.9992 9 11.6563 9 10C9 8.34373 10.3422 7.00083 11.9985 7C13.6548 6.99917 14.9983 8.34673 15 10.003Z" fill="white"/>
</svg>
