<svg width="24" height="24" viewBox="0 0 24 24" fill="none" xmlns="http://www.w3.org/2000/svg">
<path fill-rule="evenodd" clip-rule="evenodd" d="M12.0423 13.5993C14.2507 13.6004 16.0421 11.8116 16.0443 9.60328C16.0421 7.39493 14.2507 5.59819 12.0423 5.59929C9.83394 5.6004 8.04429 7.39093 8.04429 9.59928C8.04429 11.8076 9.83394 13.5982 12.0423 13.5993Z" fill="white"/>
<path fill-rule="evenodd" clip-rule="evenodd" d="M22 12C22 6.47715 17.5228 2.00001 12 2.00001C6.47715 2.00001 2 6.47715 2 12C2 15.7787 4.09591 19.068 7.18863 20.7686C8.61609 21.5535 10.2559 22 12 22C13.7449 21.9981 15.3852 21.5498 16.8129 20.7633C19.902 19.0613 21.9959 15.7755 22 12ZM11.996 3.99201C7.57929 3.99422 4 7.57528 4 11.992C4 14.5712 5.22063 16.8655 7.11584 18.3285C7.60747 16.0846 9.60608 14.4047 11.9975 14.4035C14.3878 14.4023 16.3873 16.0861 16.8824 18.3299C18.7765 16.8686 19.9974 14.5772 20 12C19.9956 7.58328 16.4127 3.9898 11.996 3.99201ZM16.0443 9.60328C16.0421 11.8116 14.2507 13.6004 12.0423 13.5993C9.83394 13.5982 8.04429 11.8076 8.04429 9.59928C8.04429 7.39093 9.83394 5.6004 12.0423 5.59929C14.2507 5.59819 16.0421 7.39493 16.0443 9.60328Z" fill="white"/>
</svg>
