<svg width="24" height="24" viewBox="0 0 24 24" fill="none" xmlns="http://www.w3.org/2000/svg">
<path fill-rule="evenodd" clip-rule="evenodd" d="M12.0423 13.5993C14.2507 13.6004 16.0421 11.8116 16.0443 9.60328C16.0421 7.39493 14.2507 5.59819 12.0423 5.59929C9.83394 5.6004 8.04429 7.39093 8.04429 9.59928C8.04429 11.8076 9.83394 13.5982 12.0423 13.5993ZM12.0403 11.5973C13.1445 11.5978 14.0402 10.7035 14.0413 9.59928C14.0402 8.4951 13.1445 7.59673 12.0403 7.59729C10.9361 7.59784 10.0413 8.49311 10.0413 9.59728C10.0413 10.7015 10.9361 11.5967 12.0403 11.5973Z" fill="white"/>
<path fill-rule="evenodd" clip-rule="evenodd" d="M12 2.00001C17.5228 2.00001 22 6.47715 22 12C21.9959 15.7755 19.902 19.0613 16.8129 20.7633C15.3852 21.5498 13.7449 21.9981 12 22C10.2559 22 8.61609 21.5535 7.18863 20.7686C4.09591 19.068 2 15.7787 2 12C2 6.47715 6.47715 2.00001 12 2.00001ZM11.996 3.99201C7.57929 3.99422 4 7.57528 4 11.992C4 14.5712 5.22063 16.8655 7.11584 18.3285C7.60747 16.0846 9.60608 14.4047 11.9975 14.4035C14.3878 14.4023 16.3873 16.0861 16.8824 18.3299C18.7765 16.8686 19.9974 14.5772 20 12C19.9956 7.58328 16.4127 3.9898 11.996 3.99201ZM16.0443 9.60328C16.0421 11.8116 14.2507 13.6004 12.0423 13.5993C9.83394 13.5982 8.04429 11.8076 8.04429 9.59928C8.04429 7.39093 9.83394 5.6004 12.0423 5.59929C14.2507 5.59819 16.0421 7.39493 16.0443 9.60328ZM14.0413 9.59928C14.0402 10.7035 13.1445 11.5978 12.0403 11.5973C10.9361 11.5967 10.0413 10.7015 10.0413 9.59728C10.0413 8.49311 10.9361 7.59784 12.0403 7.59729C13.1445 7.59673 14.0402 8.4951 14.0413 9.59928ZM11.996 16.4085C10.3397 16.4093 9 17.7542 9 19.4105C9.92525 19.785 10.9365 19.9915 11.996 19.992C13.0573 19.9925 14.0903 19.7783 15.0172 19.4035C15.0156 17.7472 13.6523 16.4077 11.996 16.4085Z" fill="white"/>
</svg>
