<svg width="24" height="24" viewBox="0 0 24 24" fill="none" xmlns="http://www.w3.org/2000/svg">
<path d="M14.001 8.502C13.9999 9.60618 13.1042 10.5006 12 10.5C10.8958 10.4994 10.001 9.60418 10.001 8.5C10.001 7.39582 10.8958 6.50055 12 6.5C13.1042 6.49945 13.9999 7.39782 14.001 8.502Z" fill="white"/>
<path fill-rule="evenodd" clip-rule="evenodd" d="M3 3V15H7L12 21L17 15H21V3H3ZM19 5H5V13H8L9.01069 14.2634C9.1313 12.7177 10.4234 11.5008 12 11.5C13.5746 11.4992 14.8667 12.7172 14.9916 14.2605L16 13H19V5ZM14.001 8.502C13.9999 9.60618 13.1042 10.5006 12 10.5C10.8958 10.4994 10.001 9.60418 10.001 8.5C10.001 7.39582 10.8958 6.50055 12 6.5C13.1042 6.49945 13.9999 7.39782 14.001 8.502Z" fill="white"/>
</svg>
