<svg width="24" height="24" viewBox="0 0 24 24" fill="none" xmlns="http://www.w3.org/2000/svg">
<path d="M6 12.0017C5.99889 13.1059 5.10318 14.0003 3.999 13.9997C2.89482 13.9992 2 13.1039 2 11.9997C2 10.8955 2.89482 10.0003 3.999 9.99973C5.10318 9.99917 5.99889 10.8975 6 12.0017Z" fill="black"/>
<path d="M14.001 12.002C13.9999 13.1062 13.1042 14.0006 12 14C10.8958 13.9994 10.001 13.1042 10.001 12C10.001 10.8958 10.8958 10.0006 12 10C13.1042 9.99945 13.9999 10.8978 14.001 12.002Z" fill="black"/>
<path d="M22 12.004C21.9989 13.1082 21.1032 14.0026 19.999 14.002C18.8948 14.0014 18 13.1062 18 12.002C18 10.8978 18.8948 10.0026 19.999 10.002C21.1032 10.0014 21.9989 10.8998 22 12.004Z" fill="black"/>
</svg>
